STARTFONT 2.1
COMMENT $XConsortium: lubBI08.bdf,v 1.10 94/04/02 16:00:37 gildea Exp $
COMMENT  (c) Copyright Bigelow & Holmes 1986, 1985. Lucida is a registered
COMMENT  trademark of Bigelow & Holmes. See LEGAL NOTICE file for terms 
COMMENT  of the license. 
COMMENT  
COMMENT  Translation to ISO8859-2 by Cub Soft;  Petr.Kolar@vslib.cz
COMMENT  
FONT -B&H-LucidaBright-DemiBold-I-Normal--8-80-75-75-P-48-ISO8859-2
SIZE 8 72 72
FONTBOUNDINGBOX 13 10 -4 -2
STARTPROPERTIES 20
COMMENT Begin LogicalFontDescription
FONTNAME_REGISTRY ""
FOUNDRY "B&H"
FAMILY_NAME "LucidaBright"
WEIGHT_NAME "DemiBold"
SLANT "I"
SETWIDTH_NAME "Normal"
ADD_STYLE_NAME ""
PIXEL_SIZE 8
POINT_SIZE 80
RESOLUTION_X 75
RESOLUTION_Y 75
SPACING "P"
AVERAGE_WIDTH 48
CHARSET_REGISTRY "ISO8859"
CHARSET_ENCODING "2"
COMMENT END LogicalFontDescription
FONT_ASCENT 7
FONT_DESCENT 2
DEFAULT_CHAR 0
COPYRIGHT "Copyright Bigelow & Holmes 1986, 1985., Copyright 1996 Cub Soft"
FACE_NAME "Lucida Bright Demibold Italic"
ENDPROPERTIES
CHARS 191
STARTCHAR space
ENCODING 32
SWIDTH 333 0
DWIDTH 3 0
BBX 1 1 0 0
BITMAP
00
ENDCHAR
STARTCHAR exclam
ENCODING 33
SWIDTH 265 0
DWIDTH 2 0
BBX 2 6 1 0
BITMAP
40
40
40
40
00
80
ENDCHAR
STARTCHAR quotedbl
ENCODING 34
SWIDTH 451 0
DWIDTH 4 0
BBX 3 2 1 4
BITMAP
a0
a0
ENDCHAR
STARTCHAR numbersign
ENCODING 35
SWIDTH 636 0
DWIDTH 5 0
BBX 5 6 1 0
BITMAP
28
f8
50
f8
a0
a0
ENDCHAR
STARTCHAR dollar
ENCODING 36
SWIDTH 636 0
DWIDTH 5 0
BBX 4 7 1 -1
BITMAP
70
70
40
60
e0
e0
40
ENDCHAR
STARTCHAR percent
ENCODING 37
SWIDTH 772 0
DWIDTH 6 0
BBX 6 6 1 0
BITMAP
6c
b0
d0
38
5c
98
ENDCHAR
STARTCHAR ampersand
ENCODING 38
SWIDTH 773 0
DWIDTH 6 0
BBX 6 6 0 0
BITMAP
18
28
7c
94
88
7c
ENDCHAR
STARTCHAR apostrophe
ENCODING 39
SWIDTH 265 0
DWIDTH 2 0
BBX 2 3 1 3
BITMAP
c0
40
80
ENDCHAR
STARTCHAR parenleft
ENCODING 40
SWIDTH 336 0
DWIDTH 3 0
BBX 3 8 1 -2
BITMAP
20
40
40
80
80
80
80
80
ENDCHAR
STARTCHAR parenright
ENCODING 41
SWIDTH 336 0
DWIDTH 3 0
BBX 3 9 0 -2
BITMAP
40
20
20
20
20
20
40
40
80
ENDCHAR
STARTCHAR asterisk
ENCODING 42
SWIDTH 434 0
DWIDTH 4 0
BBX 3 3 1 3
BITMAP
40
e0
c0
ENDCHAR
STARTCHAR plus
ENCODING 43
SWIDTH 636 0
DWIDTH 5 0
BBX 5 5 0 0
BITMAP
20
20
f8
20
20
ENDCHAR
STARTCHAR comma
ENCODING 44
SWIDTH 265 0
DWIDTH 2 0
BBX 2 3 0 -2
BITMAP
c0
40
80
ENDCHAR
STARTCHAR minus
ENCODING 45
SWIDTH 636 0
DWIDTH 5 0
BBX 5 1 0 2
BITMAP
f8
ENDCHAR
STARTCHAR period
ENCODING 46
SWIDTH 265 0
DWIDTH 2 0
BBX 2 1 0 0
BITMAP
c0
ENDCHAR
STARTCHAR slash
ENCODING 47
SWIDTH 515 0
DWIDTH 4 0
BBX 5 8 0 -2
BITMAP
08
10
10
20
20
40
40
80
ENDCHAR
STARTCHAR zero
ENCODING 48
SWIDTH 623 0
DWIDTH 5 0
BBX 5 6 1 0
BITMAP
30
58
98
90
90
60
ENDCHAR
STARTCHAR one
ENCODING 49
SWIDTH 636 0
DWIDTH 5 0
BBX 3 6 1 0
BITMAP
60
20
20
40
40
e0
ENDCHAR
STARTCHAR two
ENCODING 50
SWIDTH 636 0
DWIDTH 5 0
BBX 5 6 0 0
BITMAP
78
48
18
30
40
f0
ENDCHAR
STARTCHAR three
ENCODING 51
SWIDTH 636 0
DWIDTH 5 0
BBX 4 6 1 0
BITMAP
70
50
60
10
90
e0
ENDCHAR
STARTCHAR four
ENCODING 52
SWIDTH 636 0
DWIDTH 5 0
BBX 5 6 0 0
BITMAP
18
38
50
f8
10
38
ENDCHAR
STARTCHAR five
ENCODING 53
SWIDTH 636 0
DWIDTH 5 0
BBX 5 6 1 0
BITMAP
78
40
60
10
90
e0
ENDCHAR
STARTCHAR six
ENCODING 54
SWIDTH 636 0
DWIDTH 5 0
BBX 5 6 1 0
BITMAP
38
40
f0
90
90
60
ENDCHAR
STARTCHAR seven
ENCODING 55
SWIDTH 636 0
DWIDTH 5 0
BBX 4 6 2 0
BITMAP
f0
20
20
40
40
80
ENDCHAR
STARTCHAR eight
ENCODING 56
SWIDTH 636 0
DWIDTH 5 0
BBX 5 6 1 0
BITMAP
30
48
70
90
90
f0
ENDCHAR
STARTCHAR nine
ENCODING 57
SWIDTH 636 0
DWIDTH 5 0
BBX 5 6 1 0
BITMAP
70
58
d8
78
10
e0
ENDCHAR
STARTCHAR colon
ENCODING 58
SWIDTH 265 0
DWIDTH 2 0
BBX 2 4 0 0
BITMAP
40
00
00
80
ENDCHAR
STARTCHAR semicolon
ENCODING 59
SWIDTH 265 0
DWIDTH 2 0
BBX 2 6 0 -2
BITMAP
40
00
00
80
80
80
ENDCHAR
STARTCHAR less
ENCODING 60
SWIDTH 636 0
DWIDTH 5 0
BBX 5 5 1 0
BITMAP
08
30
c0
20
10
ENDCHAR
STARTCHAR equal
ENCODING 61
SWIDTH 636 0
DWIDTH 5 0
BBX 5 2 0 1
BITMAP
f8
f8
ENDCHAR
STARTCHAR greater
ENCODING 62
SWIDTH 636 0
DWIDTH 5 0
BBX 5 5 0 0
BITMAP
40
30
08
70
80
ENDCHAR
STARTCHAR question
ENCODING 63
SWIDTH 493 0
DWIDTH 4 0
BBX 4 6 1 0
BITMAP
f0
90
20
40
c0
80
ENDCHAR
STARTCHAR at
ENCODING 64
SWIDTH 861 0
DWIDTH 7 0
BBX 6 6 1 0
BITMAP
38
74
dc
dc
ec
70
ENDCHAR
STARTCHAR A
ENCODING 65
SWIDTH 765 0
DWIDTH 6 0
BBX 6 6 0 0
BITMAP
18
28
28
78
48
cc
ENDCHAR
STARTCHAR B
ENCODING 66
SWIDTH 651 0
DWIDTH 5 0
BBX 5 6 0 0
BITMAP
78
48
70
50
58
f0
ENDCHAR
STARTCHAR C
ENCODING 67
SWIDTH 740 0
DWIDTH 6 0
BBX 6 6 1 0
BITMAP
3c
44
c0
80
c0
78
ENDCHAR
STARTCHAR D
ENCODING 68
SWIDTH 822 0
DWIDTH 7 0
BBX 7 6 0 0
BITMAP
7c
22
62
62
44
f8
ENDCHAR
STARTCHAR E
ENCODING 69
SWIDTH 630 0
DWIDTH 5 0
BBX 5 6 0 0
BITMAP
78
68
70
40
50
f0
ENDCHAR
STARTCHAR F
ENCODING 70
SWIDTH 602 0
DWIDTH 5 0
BBX 5 6 0 0
BITMAP
78
48
70
40
40
c0
ENDCHAR
STARTCHAR G
ENCODING 71
SWIDTH 780 0
DWIDTH 6 0
BBX 6 6 1 0
BITMAP
3c
64
c0
9c
c8
78
ENDCHAR
STARTCHAR H
ENCODING 72
SWIDTH 827 0
DWIDTH 7 0
BBX 7 6 0 0
BITMAP
76
24
7c
4c
48
dc
ENDCHAR
STARTCHAR I
ENCODING 73
SWIDTH 372 0
DWIDTH 3 0
BBX 4 6 0 0
BITMAP
70
20
20
60
40
e0
ENDCHAR
STARTCHAR J
ENCODING 74
SWIDTH 478 0
DWIDTH 4 0
BBX 5 8 0 -2
BITMAP
38
10
10
30
30
20
a0
c0
ENDCHAR
STARTCHAR K
ENCODING 75
SWIDTH 746 0
DWIDTH 6 0
BBX 6 6 0 0
BITMAP
6c
38
50
70
58
dc
ENDCHAR
STARTCHAR L
ENCODING 76
SWIDTH 611 0
DWIDTH 5 0
BBX 5 6 0 0
BITMAP
70
20
60
40
48
f8
ENDCHAR
STARTCHAR M
ENCODING 77
SWIDTH 926 0
DWIDTH 7 0
BBX 8 6 0 0
BITMAP
63
26
6a
5a
54
ce
ENDCHAR
STARTCHAR N
ENCODING 78
SWIDTH 797 0
DWIDTH 6 0
BBX 7 6 0 0
BITMAP
66
24
54
54
4c
c8
ENDCHAR
STARTCHAR O
ENCODING 79
SWIDTH 831 0
DWIDTH 7 0
BBX 6 6 1 0
BITMAP
38
44
c4
84
88
70
ENDCHAR
STARTCHAR P
ENCODING 80
SWIDTH 628 0
DWIDTH 5 0
BBX 5 6 0 0
BITMAP
78
48
58
70
40
c0
ENDCHAR
STARTCHAR Q
ENCODING 81
SWIDTH 835 0
DWIDTH 7 0
BBX 7 8 1 -2
BITMAP
38
44
c4
84
88
78
10
0e
ENDCHAR
STARTCHAR R
ENCODING 82
SWIDTH 711 0
DWIDTH 6 0
BBX 5 6 1 0
BITMAP
78
48
70
50
50
d8
ENDCHAR
STARTCHAR S
ENCODING 83
SWIDTH 587 0
DWIDTH 5 0
BBX 5 6 0 0
BITMAP
38
48
60
30
90
f0
ENDCHAR
STARTCHAR T
ENCODING 84
SWIDTH 716 0
DWIDTH 6 0
BBX 6 6 1 0
BITMAP
fc
30
20
20
60
e0
ENDCHAR
STARTCHAR U
ENCODING 85
SWIDTH 775 0
DWIDTH 6 0
BBX 6 6 1 0
BITMAP
ec
48
c8
88
98
70
ENDCHAR
STARTCHAR V
ENCODING 86
SWIDTH 741 0
DWIDTH 6 0
BBX 6 6 1 0
BITMAP
cc
4c
48
50
70
20
ENDCHAR
STARTCHAR W
ENCODING 87
SWIDTH 922 0
DWIDTH 7 0
BBX 7 6 1 0
BITMAP
d2
94
f4
54
58
50
ENDCHAR
STARTCHAR X
ENCODING 88
SWIDTH 672 0
DWIDTH 5 0
BBX 6 6 0 0
BITMAP
64
28
30
30
58
98
ENDCHAR
STARTCHAR Y
ENCODING 89
SWIDTH 669 0
DWIDTH 5 0
BBX 5 6 1 0
BITMAP
c8
48
50
60
40
e0
ENDCHAR
STARTCHAR Z
ENCODING 90
SWIDTH 684 0
DWIDTH 5 0
BBX 5 6 1 0
BITMAP
78
50
30
60
50
f0
ENDCHAR
STARTCHAR bracketleft
ENCODING 91
SWIDTH 336 0
DWIDTH 3 0
BBX 3 8 0 -2
BITMAP
60
40
40
40
40
80
80
c0
ENDCHAR
STARTCHAR backslash
ENCODING 92
SWIDTH 515 0
DWIDTH 4 0
BBX 2 8 2 -2
BITMAP
80
80
80
80
40
40
40
40
ENDCHAR
STARTCHAR bracketright
ENCODING 93
SWIDTH 336 0
DWIDTH 3 0
BBX 3 8 0 -2
BITMAP
60
20
20
40
40
40
40
c0
ENDCHAR
STARTCHAR asciicircum
ENCODING 94
SWIDTH 636 0
DWIDTH 5 0
BBX 5 5 0 1
BITMAP
10
30
50
48
88
ENDCHAR
STARTCHAR underscore
ENCODING 95
SWIDTH 500 0
DWIDTH 4 0
BBX 3 1 0 -1
BITMAP
e0
ENDCHAR
STARTCHAR grave
ENCODING 96
SWIDTH 599 0
DWIDTH 5 0
BBX 2 1 2 5
BITMAP
c0
ENDCHAR
STARTCHAR a
ENCODING 97
SWIDTH 634 0
DWIDTH 5 0
BBX 5 4 0 0
BITMAP
38
48
90
f8
ENDCHAR
STARTCHAR b
ENCODING 98
SWIDTH 633 0
DWIDTH 5 0
BBX 5 6 1 0
BITMAP
60
40
78
68
d0
e0
ENDCHAR
STARTCHAR c
ENCODING 99
SWIDTH 524 0
DWIDTH 4 0
BBX 4 4 1 0
BITMAP
70
d0
80
e0
ENDCHAR
STARTCHAR d
ENCODING 100
SWIDTH 634 0
DWIDTH 5 0
BBX 5 6 1 0
BITMAP
18
08
70
d0
b0
f0
ENDCHAR
STARTCHAR e
ENCODING 101
SWIDTH 548 0
DWIDTH 4 0
BBX 4 4 1 0
BITMAP
70
90
f0
e0
ENDCHAR
STARTCHAR f
ENCODING 102
SWIDTH 415 0
DWIDTH 3 0
BBX 4 8 1 -2
BITMAP
30
50
e0
40
40
c0
80
80
ENDCHAR
STARTCHAR g
ENCODING 103
SWIDTH 628 0
DWIDTH 5 0
BBX 5 6 0 -2
BITMAP
38
58
b8
f0
90
e0
ENDCHAR
STARTCHAR h
ENCODING 104
SWIDTH 656 0
DWIDTH 5 0
BBX 6 6 1 0
BITMAP
60
40
58
68
d8
9c
ENDCHAR
STARTCHAR i
ENCODING 105
SWIDTH 319 0
DWIDTH 3 0
BBX 2 6 1 0
BITMAP
40
00
c0
c0
80
c0
ENDCHAR
STARTCHAR j
ENCODING 106
SWIDTH 381 0
DWIDTH 3 0
BBX 4 8 0 -2
BITMAP
10
00
30
20
20
20
a0
c0
ENDCHAR
STARTCHAR k
ENCODING 107
SWIDTH 626 0
DWIDTH 5 0
BBX 4 6 1 0
BITMAP
c0
40
50
e0
a0
b0
ENDCHAR
STARTCHAR l
ENCODING 108
SWIDTH 319 0
DWIDTH 3 0
BBX 2 6 1 0
BITMAP
c0
40
40
80
80
c0
ENDCHAR
STARTCHAR m
ENCODING 109
SWIDTH 969 0
DWIDTH 8 0
BBX 8 4 1 0
BITMAP
d6
7a
92
97
ENDCHAR
STARTCHAR n
ENCODING 110
SWIDTH 656 0
DWIDTH 5 0
BBX 6 4 1 0
BITMAP
d8
68
d8
9c
ENDCHAR
STARTCHAR o
ENCODING 111
SWIDTH 599 0
DWIDTH 5 0
BBX 4 4 1 0
BITMAP
70
d0
90
e0
ENDCHAR
STARTCHAR p
ENCODING 112
SWIDTH 639 0
DWIDTH 5 0
BBX 5 6 0 -2
BITMAP
f8
68
58
f0
80
80
ENDCHAR
STARTCHAR q
ENCODING 113
SWIDTH 630 0
DWIDTH 5 0
BBX 5 6 0 -2
BITMAP
38
58
b0
f0
10
10
ENDCHAR
STARTCHAR r
ENCODING 114
SWIDTH 496 0
DWIDTH 4 0
BBX 4 4 1 0
BITMAP
f0
60
c0
80
ENDCHAR
STARTCHAR s
ENCODING 115
SWIDTH 479 0
DWIDTH 4 0
BBX 4 4 0 0
BITMAP
70
50
a0
e0
ENDCHAR
STARTCHAR t
ENCODING 116
SWIDTH 375 0
DWIDTH 3 0
BBX 3 6 1 0
BITMAP
40
40
e0
c0
80
c0
ENDCHAR
STARTCHAR u
ENCODING 117
SWIDTH 655 0
DWIDTH 5 0
BBX 5 4 1 0
BITMAP
d8
d8
90
f8
ENDCHAR
STARTCHAR v
ENCODING 118
SWIDTH 584 0
DWIDTH 5 0
BBX 5 4 0 0
BITMAP
d8
58
70
40
ENDCHAR
STARTCHAR w
ENCODING 119
SWIDTH 822 0
DWIDTH 7 0
BBX 6 4 1 0
BITMAP
d4
7c
78
50
ENDCHAR
STARTCHAR x
ENCODING 120
SWIDTH 534 0
DWIDTH 4 0
BBX 4 4 0 0
BITMAP
d0
60
60
b0
ENDCHAR
STARTCHAR y
ENCODING 121
SWIDTH 586 0
DWIDTH 5 0
BBX 5 6 0 -2
BITMAP
48
68
30
20
20
c0
ENDCHAR
STARTCHAR z
ENCODING 122
SWIDTH 567 0
DWIDTH 5 0
BBX 5 4 0 0
BITMAP
78
70
68
f0
ENDCHAR
STARTCHAR braceleft
ENCODING 123
SWIDTH 361 0
DWIDTH 3 0
BBX 3 8 1 -2
BITMAP
60
40
40
40
80
40
80
c0
ENDCHAR
STARTCHAR bar
ENCODING 124
SWIDTH 253 0
DWIDTH 2 0
BBX 2 8 1 -2
BITMAP
40
40
40
80
80
80
80
80
ENDCHAR
STARTCHAR braceright
ENCODING 125
SWIDTH 361 0
DWIDTH 3 0
BBX 3 8 0 -2
BITMAP
60
20
40
20
40
40
40
c0
ENDCHAR
STARTCHAR asciitilde
ENCODING 126
SWIDTH 636 0
DWIDTH 5 0
BBX 7 2 1 1
BITMAP
62
9c
ENDCHAR
STARTCHAR nobreakspace
ENCODING 160
SWIDTH 333 0
DWIDTH 3 0
BBX 1 1 0 0
BITMAP
00
ENDCHAR
STARTCHAR Aogonek
ENCODING 161
SWIDTH 765 0
DWIDTH 6 0
BBX 6 7 0 -1
BITMAP
18
28
28
78
48
cc
20
ENDCHAR
STARTCHAR breve
ENCODING 162
SWIDTH 599 0
DWIDTH 5 0
BBX 3 1 2 5
BITMAP
e0
ENDCHAR
STARTCHAR Lstroke
ENCODING 163
SWIDTH 611 0
DWIDTH 5 0
BBX 5 6 0 0
BITMAP
70
20
f0
40
48
f8
ENDCHAR
STARTCHAR currency
ENCODING 164
SWIDTH 636 0
DWIDTH 5 0
BBX 6 6 0 0
BITMAP
44
78
48
48
70
88
ENDCHAR
STARTCHAR Lcaron
ENCODING 165
SWIDTH 875 0
DWIDTH 7 0
BBX 7 7 0 0
BITMAP
06
72
24
60
40
48
f8
ENDCHAR
STARTCHAR Sacute
ENCODING 166
SWIDTH 587 0
DWIDTH 5 0
BBX 5 8 0 0
BITMAP
30
00
38
48
60
30
90
f0
ENDCHAR
STARTCHAR section
ENCODING 167
SWIDTH 636 0
DWIDTH 5 0
BBX 5 8 0 -2
BITMAP
38
48
20
70
78
30
90
e0
ENDCHAR
STARTCHAR diaeresis
ENCODING 168
SWIDTH 599 0
DWIDTH 5 0
BBX 3 1 2 5
BITMAP
a0
ENDCHAR
STARTCHAR Scaron
ENCODING 169
SWIDTH 587 0
DWIDTH 5 0
BBX 5 8 0 0
BITMAP
70
00
38
48
60
30
90
f0
ENDCHAR
STARTCHAR Scedilla
ENCODING 170
SWIDTH 587 0
DWIDTH 5 0
BBX 5 8 0 -2
BITMAP
38
48
60
30
90
f0
20
20
ENDCHAR
STARTCHAR Tcaron
ENCODING 171
SWIDTH 716 0
DWIDTH 6 0
BBX 6 8 1 0
BITMAP
70
00
fc
30
20
20
60
e0
ENDCHAR
STARTCHAR Zacute
ENCODING 172
SWIDTH 684 0
DWIDTH 5 0
BBX 5 8 1 0
BITMAP
30
00
78
50
30
60
50
f0
ENDCHAR
STARTCHAR hyphen
ENCODING 173
SWIDTH 289 0
DWIDTH 2 0
BBX 2 1 1 2
BITMAP
c0
ENDCHAR
STARTCHAR Zcaron
ENCODING 174
SWIDTH 684 0
DWIDTH 5 0
BBX 5 8 1 0
BITMAP
70
00
78
50
30
60
50
f0
ENDCHAR
STARTCHAR Zabovedot
ENCODING 175
SWIDTH 684 0
DWIDTH 5 0
BBX 5 8 1 0
BITMAP
20
00
78
50
30
60
50
f0
ENDCHAR
STARTCHAR degree
ENCODING 176
SWIDTH 259 0
DWIDTH 2 0
BBX 1 2 2 4
BITMAP
80
80
ENDCHAR
STARTCHAR aogonek
ENCODING 177
SWIDTH 634 0
DWIDTH 5 0
BBX 5 5 0 -1
BITMAP
38
48
90
f8
20
ENDCHAR
STARTCHAR ogonek
ENCODING 178
SWIDTH 599 0
DWIDTH 5 0
BBX 1 1 2 -2
BITMAP
80
ENDCHAR
STARTCHAR lstroke
ENCODING 179
SWIDTH 319 0
DWIDTH 3 0
BBX 5 6 1 0
BITMAP
30
20
68
b0
20
60
ENDCHAR
STARTCHAR acute
ENCODING 180
SWIDTH 599 0
DWIDTH 5 0
BBX 2 1 3 5
BITMAP
c0
ENDCHAR
STARTCHAR lcaron
ENCODING 181
SWIDTH 750 0
DWIDTH 6 0
BBX 5 7 1 0
BITMAP
18
c8
50
40
80
80
c0
ENDCHAR
STARTCHAR sacute
ENCODING 182
SWIDTH 479 0
DWIDTH 4 0
BBX 4 6 0 0
BITMAP
30
00
70
50
a0
e0
ENDCHAR
STARTCHAR caron
ENCODING 183
SWIDTH 599 0
DWIDTH 5 0
BBX 3 1 2 5
BITMAP
e0
ENDCHAR
STARTCHAR cedilla
ENCODING 184
SWIDTH 599 0
DWIDTH 5 0
BBX 1 2 2 -2
BITMAP
80
80
ENDCHAR
STARTCHAR scaron
ENCODING 185
SWIDTH 479 0
DWIDTH 4 0
BBX 4 6 0 0
BITMAP
70
00
70
50
a0
e0
ENDCHAR
STARTCHAR scedilla
ENCODING 186
SWIDTH 479 0
DWIDTH 4 0
BBX 4 6 0 -2
BITMAP
70
50
a0
e0
40
40
ENDCHAR
STARTCHAR tcaron
ENCODING 187
SWIDTH 625 0
DWIDTH 5 0
BBX 5 8 1 0
BITMAP
18
08
50
40
e0
c0
80
c0
ENDCHAR
STARTCHAR zacute
ENCODING 188
SWIDTH 567 0
DWIDTH 5 0
BBX 5 6 0 0
BITMAP
30
00
78
70
68
f0
ENDCHAR
STARTCHAR doubleacute
ENCODING 189
SWIDTH 599 0
DWIDTH 5 0
BBX 3 1 3 5
BITMAP
e0
ENDCHAR
STARTCHAR zcaron
ENCODING 190
SWIDTH 567 0
DWIDTH 5 0
BBX 5 6 0 0
BITMAP
70
00
78
70
68
f0
ENDCHAR
STARTCHAR zabovedot
ENCODING 191
SWIDTH 567 0
DWIDTH 5 0
BBX 5 6 0 0
BITMAP
20
00
78
70
68
f0
ENDCHAR
STARTCHAR Racute
ENCODING 192
SWIDTH 711 0
DWIDTH 6 0
BBX 5 8 1 0
BITMAP
30
00
78
48
70
50
50
d8
ENDCHAR
STARTCHAR Aacute
ENCODING 193
SWIDTH 765 0
DWIDTH 6 0
BBX 6 7 0 0
BITMAP
0c
18
28
28
78
48
cc
ENDCHAR
STARTCHAR Acircumflex
ENCODING 194
SWIDTH 765 0
DWIDTH 6 0
BBX 6 7 0 0
BITMAP
1c
18
28
28
78
48
cc
ENDCHAR
STARTCHAR Abreve
ENCODING 195
SWIDTH 765 0
DWIDTH 6 0
BBX 6 8 0 0
BITMAP
38
00
18
28
28
78
48
cc
ENDCHAR
STARTCHAR Adiaeresis
ENCODING 196
SWIDTH 765 0
DWIDTH 6 0
BBX 6 7 0 0
BITMAP
14
18
28
28
78
48
cc
ENDCHAR
STARTCHAR Lacute
ENCODING 197
SWIDTH 611 0
DWIDTH 5 0
BBX 5 8 0 0
BITMAP
30
00
70
20
60
40
48
f8
ENDCHAR
STARTCHAR Cacute
ENCODING 198
SWIDTH 740 0
DWIDTH 6 0
BBX 6 8 1 0
BITMAP
18
00
3c
44
c0
80
c0
78
ENDCHAR
STARTCHAR Ccedilla
ENCODING 199
SWIDTH 740 0
DWIDTH 6 0
BBX 6 8 1 -2
BITMAP
3c
44
c0
80
c0
78
40
40
ENDCHAR
STARTCHAR Ccaron
ENCODING 200
SWIDTH 740 0
DWIDTH 6 0
BBX 6 8 1 0
BITMAP
38
00
3c
44
c0
80
c0
78
ENDCHAR
STARTCHAR Eacute
ENCODING 201
SWIDTH 630 0
DWIDTH 5 0
BBX 5 7 0 0
BITMAP
10
78
68
70
40
50
f0
ENDCHAR
STARTCHAR Eogonek
ENCODING 202
SWIDTH 630 0
DWIDTH 5 0
BBX 5 7 0 -1
BITMAP
78
68
70
40
50
f0
20
ENDCHAR
STARTCHAR Ediaeresis
ENCODING 203
SWIDTH 630 0
DWIDTH 5 0
BBX 5 7 0 0
BITMAP
28
78
68
70
40
50
f0
ENDCHAR
STARTCHAR Ecaron
ENCODING 204
SWIDTH 630 0
DWIDTH 5 0
BBX 5 8 0 0
BITMAP
70
00
78
68
70
40
50
f0
ENDCHAR
STARTCHAR Iacute
ENCODING 205
SWIDTH 372 0
DWIDTH 3 0
BBX 4 7 0 0
BITMAP
20
70
20
20
60
40
e0
ENDCHAR
STARTCHAR Icircumflex
ENCODING 206
SWIDTH 372 0
DWIDTH 3 0
BBX 4 7 0 0
BITMAP
30
70
20
20
60
40
e0
ENDCHAR
STARTCHAR Dcaron
ENCODING 207
SWIDTH 822 0
DWIDTH 7 0
BBX 7 8 0 0
BITMAP
38
00
7c
22
62
62
44
f8
ENDCHAR
STARTCHAR Dstroke
ENCODING 208
SWIDTH 822 0
DWIDTH 7 0
BBX 7 6 0 0
BITMAP
7c
22
f2
42
44
f8
ENDCHAR
STARTCHAR Nacute
ENCODING 209
SWIDTH 797 0
DWIDTH 6 0
BBX 7 8 0 0
BITMAP
18
00
66
24
54
54
4c
c8
ENDCHAR
STARTCHAR Ncaron
ENCODING 210
SWIDTH 797 0
DWIDTH 6 0
BBX 7 8 0 0
BITMAP
38
00
66
24
54
54
4c
c8
ENDCHAR
STARTCHAR Oacute
ENCODING 211
SWIDTH 831 0
DWIDTH 7 0
BBX 6 7 1 0
BITMAP
10
38
44
c4
84
88
70
ENDCHAR
STARTCHAR Ocircumflex
ENCODING 212
SWIDTH 831 0
DWIDTH 7 0
BBX 6 7 1 0
BITMAP
18
38
44
c4
84
88
70
ENDCHAR
STARTCHAR Odoubleacute
ENCODING 213
SWIDTH 831 0
DWIDTH 7 0
BBX 6 8 1 0
BITMAP
38
00
38
44
c4
84
88
70
ENDCHAR
STARTCHAR Odiaeresis
ENCODING 214
SWIDTH 831 0
DWIDTH 7 0
BBX 6 7 1 0
BITMAP
28
38
44
c4
84
88
70
ENDCHAR
STARTCHAR multiply
ENCODING 215
SWIDTH 636 0
DWIDTH 5 0
BBX 5 5 0 0
BITMAP
48
50
20
50
90
ENDCHAR
STARTCHAR Rcaron
ENCODING 216
SWIDTH 711 0
DWIDTH 6 0
BBX 5 8 1 0
BITMAP
70
00
78
48
70
50
50
d8
ENDCHAR
STARTCHAR Uring
ENCODING 217
SWIDTH 775 0
DWIDTH 6 0
BBX 6 10 1 0
BITMAP
20
50
20
00
ec
48
c8
88
98
70
ENDCHAR
STARTCHAR Uacute
ENCODING 218
SWIDTH 775 0
DWIDTH 6 0
BBX 6 7 1 0
BITMAP
18
ec
48
c8
88
98
70
ENDCHAR
STARTCHAR Udoubleacute
ENCODING 219
SWIDTH 775 0
DWIDTH 6 0
BBX 6 8 1 0
BITMAP
70
00
ec
48
c8
88
98
70
ENDCHAR
STARTCHAR Udiaeresis
ENCODING 220
SWIDTH 775 0
DWIDTH 6 0
BBX 6 7 1 0
BITMAP
28
ec
48
c8
88
98
70
ENDCHAR
STARTCHAR Yacute
ENCODING 221
SWIDTH 669 0
DWIDTH 5 0
BBX 5 7 1 0
BITMAP
30
c8
48
50
60
40
e0
ENDCHAR
STARTCHAR Tcedilla
ENCODING 222
SWIDTH 716 0
DWIDTH 6 0
BBX 6 8 1 -2
BITMAP
fc
30
20
20
60
e0
20
20
ENDCHAR
STARTCHAR ssharp
ENCODING 223
SWIDTH 656 0
DWIDTH 5 0
BBX 5 8 0 -2
BITMAP
38
70
50
58
68
f8
c0
80
ENDCHAR
STARTCHAR racute
ENCODING 224
SWIDTH 496 0
DWIDTH 4 0
BBX 4 6 1 0
BITMAP
60
00
f0
60
c0
80
ENDCHAR
STARTCHAR aacute
ENCODING 225
SWIDTH 634 0
DWIDTH 5 0
BBX 5 5 0 0
BITMAP
10
38
48
90
f8
ENDCHAR
STARTCHAR acircumflex
ENCODING 226
SWIDTH 634 0
DWIDTH 5 0
BBX 5 5 0 0
BITMAP
18
38
48
90
f8
ENDCHAR
STARTCHAR abreve
ENCODING 227
SWIDTH 634 0
DWIDTH 5 0
BBX 5 6 0 0
BITMAP
70
00
38
48
90
f8
ENDCHAR
STARTCHAR adiaeresis
ENCODING 228
SWIDTH 634 0
DWIDTH 5 0
BBX 5 5 0 0
BITMAP
28
38
48
90
f8
ENDCHAR
STARTCHAR lacute
ENCODING 229
SWIDTH 319 0
DWIDTH 3 0
BBX 2 8 1 0
BITMAP
c0
00
c0
40
40
80
80
c0
ENDCHAR
STARTCHAR cacute
ENCODING 230
SWIDTH 524 0
DWIDTH 4 0
BBX 4 6 1 0
BITMAP
60
00
70
d0
80
e0
ENDCHAR
STARTCHAR ccedilla
ENCODING 231
SWIDTH 524 0
DWIDTH 4 0
BBX 4 6 1 -2
BITMAP
70
d0
80
e0
40
40
ENDCHAR
STARTCHAR ccaron
ENCODING 232
SWIDTH 524 0
DWIDTH 4 0
BBX 4 6 1 0
BITMAP
e0
00
70
d0
80
e0
ENDCHAR
STARTCHAR eacute
ENCODING 233
SWIDTH 548 0
DWIDTH 4 0
BBX 4 5 1 0
BITMAP
20
70
90
f0
e0
ENDCHAR
STARTCHAR eogonek
ENCODING 234
SWIDTH 548 0
DWIDTH 4 0
BBX 4 5 1 -1
BITMAP
70
90
f0
e0
40
ENDCHAR
STARTCHAR ediaeresis
ENCODING 235
SWIDTH 548 0
DWIDTH 4 0
BBX 4 5 1 0
BITMAP
50
70
90
f0
e0
ENDCHAR
STARTCHAR ecaron
ENCODING 236
SWIDTH 548 0
DWIDTH 4 0
BBX 4 6 1 0
BITMAP
e0
00
70
90
f0
e0
ENDCHAR
STARTCHAR iacute
ENCODING 237
SWIDTH 319 0
DWIDTH 3 0
BBX 3 5 1 0
BITMAP
60
c0
40
80
c0
ENDCHAR
STARTCHAR icircumflex
ENCODING 238
SWIDTH 319 0
DWIDTH 3 0
BBX 3 5 1 0
BITMAP
e0
c0
40
80
c0
ENDCHAR
STARTCHAR dcaron
ENCODING 239
SWIDTH 1000 0
DWIDTH 8 0
BBX 8 7 1 0
BITMAP
03
19
0a
70
d0
b0
f0
ENDCHAR
STARTCHAR dstroke
ENCODING 240
SWIDTH 750 0
DWIDTH 6 0
BBX 6 6 1 0
BITMAP
1c
08
70
d0
b0
f0
ENDCHAR
STARTCHAR nacute
ENCODING 241
SWIDTH 656 0
DWIDTH 5 0
BBX 6 6 1 0
BITMAP
30
00
d8
68
d8
9c
ENDCHAR
STARTCHAR ncaron
ENCODING 242
SWIDTH 656 0
DWIDTH 5 0
BBX 6 6 1 0
BITMAP
70
00
d8
68
d8
9c
ENDCHAR
STARTCHAR oacute
ENCODING 243
SWIDTH 599 0
DWIDTH 5 0
BBX 4 5 1 0
BITMAP
20
70
d0
90
e0
ENDCHAR
STARTCHAR ocircumflex
ENCODING 244
SWIDTH 599 0
DWIDTH 5 0
BBX 4 5 1 0
BITMAP
30
70
d0
90
e0
ENDCHAR
STARTCHAR odoubleacute
ENCODING 245
SWIDTH 599 0
DWIDTH 5 0
BBX 4 6 1 0
BITMAP
e0
00
70
d0
90
e0
ENDCHAR
STARTCHAR odiaeresis
ENCODING 246
SWIDTH 599 0
DWIDTH 5 0
BBX 5 5 1 0
BITMAP
28
70
d0
90
e0
ENDCHAR
STARTCHAR division
ENCODING 247
SWIDTH 636 0
DWIDTH 5 0
BBX 5 4 0 0
BITMAP
20
00
f8
20
ENDCHAR
STARTCHAR rcaron
ENCODING 248
SWIDTH 496 0
DWIDTH 4 0
BBX 4 6 1 0
BITMAP
e0
00
f0
60
c0
80
ENDCHAR
STARTCHAR uring
ENCODING 249
SWIDTH 655 0
DWIDTH 5 0
BBX 5 8 1 0
BITMAP
20
50
20
00
d8
d8
90
f8
ENDCHAR
STARTCHAR uacute
ENCODING 250
SWIDTH 655 0
DWIDTH 5 0
BBX 5 5 1 0
BITMAP
18
d8
d8
90
f8
ENDCHAR
STARTCHAR udoubleacute
ENCODING 251
SWIDTH 655 0
DWIDTH 5 0
BBX 5 6 1 0
BITMAP
70
00
d8
d8
90
f8
ENDCHAR
STARTCHAR udiaeresis
ENCODING 252
SWIDTH 655 0
DWIDTH 5 0
BBX 5 5 1 0
BITMAP
28
d8
d8
90
f8
ENDCHAR
STARTCHAR yacute
ENCODING 253
SWIDTH 586 0
DWIDTH 5 0
BBX 5 7 0 -2
BITMAP
18
48
68
30
20
20
c0
ENDCHAR
STARTCHAR tcedilla
ENCODING 254
SWIDTH 375 0
DWIDTH 3 0
BBX 3 8 1 -2
BITMAP
40
40
e0
c0
80
c0
40
40
ENDCHAR
STARTCHAR abovedot
ENCODING 255
SWIDTH 599 0
DWIDTH 5 0
BBX 1 1 3 5
BITMAP
80
ENDCHAR
ENDFONT
